<svg xmlns="http://www.w3.org/2000/svg" width="85" height="85" viewBox="0 0 85 85">
  <g id="ai_icon" data-name="ai icon" transform="translate(4100 782)">
    <circle id="Ellipse_70" data-name="Ellipse 70" cx="42.5" cy="42.5" r="42.5" transform="translate(-4100 -782)" fill="#37383a"/>
    <g id="artificial-intelligence" transform="translate(-4087.813 -760.444)">
      <g id="Page-1_24_" transform="translate(10.061 0)">
        <g id="_x30_25---AI" transform="translate(0 0)">
          <path id="Shape_69_" d="M194.449,243.207a.683.683,0,0,0,.893-.367l.963-2.312h3.643l.963,2.312a.683.683,0,0,0,1.261-.526l-3.415-8.2a.683.683,0,0,0-1.261,0l-3.415,8.2a.683.683,0,0,0,.367.893Zm3.678-7.05,1.252,3.005h-2.5Z" transform="translate(-181.386 -217.534)" fill="#fff"/>
          <path id="Path_84_" d="M326.8,241.894a.683.683,0,1,0,0,1.366h4.1a.683.683,0,0,0,0-1.366h-1.366v-6.829H330.9a.683.683,0,0,0,0-1.366h-4.1a.683.683,0,1,0,0,1.366h1.366v6.829Z" transform="translate(-304.397 -217.535)" fill="#fff" fill-rule="evenodd"/>
          <path id="Shape_68_" d="M11.066,30.719a2.793,2.793,0,0,0,2.793,2.793,2.761,2.761,0,0,0,1.021-.2,11.112,11.112,0,0,0,6.842,1.923c.431,0,.88-.02,1.334-.05,2.027,4.143,4.953,6.7,8.257,6.7s6.23-2.562,8.258-6.7c.455.029.9.05,1.334.05a11.113,11.113,0,0,0,6.842-1.923,2.762,2.762,0,0,0,1.02.2,2.793,2.793,0,0,0,1.525-5.127,12.77,12.77,0,0,0-2.541-7.44,12.766,12.766,0,0,0,2.541-7.44,2.786,2.786,0,0,0-2.552-4.925c-1.9-1.451-4.7-2.094-8.168-1.868C37.544,2.564,34.618,0,31.312,0S25.08,2.564,23.051,6.711c-3.469-.225-6.269.419-8.168,1.868A2.787,2.787,0,0,0,12.331,13.5a12.786,12.786,0,0,0,2.543,7.44,12.764,12.764,0,0,0-2.541,7.44,2.788,2.788,0,0,0-1.267,2.334Zm1.4,0a1.4,1.4,0,1,1,.409.987A1.4,1.4,0,0,1,12.462,30.719ZM23.918,8.182a27.607,27.607,0,0,1,5.465,1.227,40.147,40.147,0,0,0-3.656,1.861,38.864,38.864,0,0,0-3.454,2.246A27.479,27.479,0,0,1,23.918,8.182Zm16.433,5.334A38.777,38.777,0,0,0,36.9,11.27a40.554,40.554,0,0,0-3.65-1.861,27.6,27.6,0,0,1,5.46-1.227A27.477,27.477,0,0,1,40.351,13.516ZM38.706,33.707a27.607,27.607,0,0,1-5.465-1.227A40.146,40.146,0,0,0,36.9,30.619a38.863,38.863,0,0,0,3.454-2.246A27.476,27.476,0,0,1,38.706,33.707ZM36.2,12.48a36.8,36.8,0,0,1,4.5,3.056,38.32,38.32,0,0,1,0,10.817,36.822,36.822,0,0,1-4.5,3.056,37.519,37.519,0,0,1-4.887,2.372,37.485,37.485,0,0,1-4.887-2.374,36.8,36.8,0,0,1-4.5-3.056,38.351,38.351,0,0,1,0-10.817,36.825,36.825,0,0,1,4.5-3.054,37.519,37.519,0,0,1,4.891-2.374A37.5,37.5,0,0,1,36.2,12.48Zm6.074,4.375a27.679,27.679,0,0,1,3.775,4.089,27.684,27.684,0,0,1-3.77,4.089,40.494,40.494,0,0,0,.2-4.089,40.473,40.473,0,0,0-.206-4.089ZM20.351,25.034a27.608,27.608,0,0,1-3.775-4.089,27.681,27.681,0,0,1,3.77-4.089,40.691,40.691,0,0,0,0,8.178Zm5.38,5.585a40.552,40.552,0,0,0,3.65,1.861,27.6,27.6,0,0,1-5.46,1.227,27.478,27.478,0,0,1-1.645-5.334,38.788,38.788,0,0,0,3.45,2.246Zm5.581,9.874c-2.622,0-5.005-2.08-6.762-5.453a30.7,30.7,0,0,0,6.762-1.762,30.675,30.675,0,0,0,6.765,1.762C36.316,38.413,33.934,40.493,31.312,40.493Zm17.454-8.378a1.4,1.4,0,1,1,1.4-1.4A1.4,1.4,0,0,1,48.766,32.115Zm.147-4.174c-.05,0-.1-.015-.147-.015a2.777,2.777,0,0,0-2.186,4.509,10.976,10.976,0,0,1-6.4,1.38A30.32,30.32,0,0,0,42.01,27.1a30.523,30.523,0,0,0,4.871-4.933A11.69,11.69,0,0,1,48.912,27.941Zm1.25-16.77a1.4,1.4,0,1,1-1.4-1.4A1.4,1.4,0,0,1,50.162,11.17ZM46.58,9.454a2.777,2.777,0,0,0,2.186,4.509c.05,0,.1-.012.147-.015a11.686,11.686,0,0,1-2.032,5.779,30.524,30.524,0,0,0-4.872-4.933,30.3,30.3,0,0,0-1.831-6.72,10.954,10.954,0,0,1,6.4,1.38ZM31.312,1.4c2.622,0,5.005,2.08,6.762,5.453a30.693,30.693,0,0,0-6.759,1.762A30.675,30.675,0,0,0,24.55,6.85C26.308,3.476,28.69,1.4,31.312,1.4ZM13.858,9.774a1.4,1.4,0,1,1-1.4,1.4A1.4,1.4,0,0,1,13.858,9.774Zm-.147,4.174c.05,0,.1.015.147.015a2.793,2.793,0,0,0,2.793-2.793,2.765,2.765,0,0,0-.607-1.717,10.979,10.979,0,0,1,6.4-1.38,30.323,30.323,0,0,0-1.828,6.72,30.546,30.546,0,0,0-4.871,4.932,11.678,11.678,0,0,1-2.032-5.778Zm2.032,8.214A30.583,30.583,0,0,0,20.616,27.1a30.318,30.318,0,0,0,1.83,6.721,10.974,10.974,0,0,1-6.4-1.381,2.779,2.779,0,0,0-2.189-4.509c-.05,0-.1.013-.147.015a11.683,11.683,0,0,1,2.032-5.778Z" transform="translate(-11.061 0)" fill="#fff"/>
        </g>
      </g>
    </g>
  </g>
</svg>
