<svg xmlns="http://www.w3.org/2000/svg" xmlns:xlink="http://www.w3.org/1999/xlink" width="90" height="90" viewBox="0 0 90 90">
  <defs>
    <clipPath id="clip-path">
      <circle id="Ellipse_38" data-name="Ellipse 38" cx="45" cy="45" r="45" transform="translate(-773 1155)" fill="#fff"/>
    </clipPath>
  </defs>
  <g id="safety_icon" data-name="safety icon" transform="translate(-1097 -2961)">
    <circle id="Ellipse_45" data-name="Ellipse 45" cx="42.5" cy="42.5" r="42.5" transform="translate(1099 2963)" fill="#37383a"/>
    <g id="Safety" transform="translate(1870 1806)" clip-path="url(#clip-path)">
      <g id="Safety-2" data-name="Safety" transform="translate(-754.2 1173.944)">
        <path id="Path_370" data-name="Path 370" d="M47.6,11.5c-7.3,1.2-16.1-2.2-20.3-9L27,2.2a1.076,1.076,0,0,0-1.4.3c-4.1,6.7-12.9,10.2-20.3,9H5.1a.9.9,0,0,0-.9.9A58.65,58.65,0,0,0,5.7,24.2C8.5,35.7,15.2,47.8,26.5,51,15.5,47,9.7,35.2,7.4,23.8A60.25,60.25,0,0,1,6.2,13.4,22.5,22.5,0,0,0,26.5,4.8a22.6,22.6,0,0,0,20.3,8.6,60.25,60.25,0,0,1-1.2,10.4C43.3,35.3,37.5,47,26.5,51c11.4-3.2,18-15.3,20.6-26.9a58.65,58.65,0,0,0,1.5-11.8v-.2A.832.832,0,0,0,47.6,11.5Z" fill="#fff"/>
        <path id="Path_371" data-name="Path 371" d="M39.7,26.2a63.627,63.627,0,0,0,1.4-7.6c-1.9,9-6.2,21-14.6,24.9-6.5-3.1-10.1-10.7-12-17.6-.6-2.1-1.1-4.3-1.5-6.5a27.6,27.6,0,0,0,13.5-6.3A27.728,27.728,0,0,0,41,18.6a29.59,29.59,0,0,1-14.1-6.8.608.608,0,0,0-.8,0,28.826,28.826,0,0,1-14.3,5.9.9.9,0,0,0-.8,1,65.7,65.7,0,0,0,1.6,7.7c2.1,7.7,6.2,15.8,13.5,18.9a.854.854,0,0,0,.7,0c7-3.2,11-11.6,12.9-19.1Z" fill="#fff"/>
      </g>
    </g>
  </g>
</svg>
