<svg xmlns="http://www.w3.org/2000/svg" width="85" height="85" viewBox="0 0 85 85">
  <g id="technology_icon_" data-name="technology icon " transform="translate(3250 1206)">
    <circle id="Ellipse_69" data-name="Ellipse 69" cx="42.5" cy="42.5" r="42.5" transform="translate(-3250 -1206)" fill="#37383a"/>
    <g id="elearning" transform="translate(-3222.126 -1180.511)">
      <path id="Path_14" data-name="Path 14" d="M179.876,63.608a9.694,9.694,0,0,1,2.392-2.324c.478-.342,1.025-.615,1.572-.957a4.03,4.03,0,0,0-4.99,4.785C179.261,64.565,179.534,64.087,179.876,63.608Z" transform="translate(-169.896 -56.978)" fill="#fff"/>
      <path id="Path_15" data-name="Path 15" d="M387.295,363.69a1.266,1.266,0,0,0-.478-.547.719.719,0,0,0-.889,0,4.459,4.459,0,0,0-.478.547,1.266,1.266,0,0,0,.478.547.719.719,0,0,0,.889,0A4.465,4.465,0,0,0,387.295,363.69Z" transform="translate(-362.003 -338.398)" fill="#fff"/>
      <path id="Path_16" data-name="Path 16" d="M346.311,363.367a.988.988,0,0,0-.478-.137,1.739,1.739,0,0,0-.478.137,4.465,4.465,0,0,0-.478.547,1.266,1.266,0,0,0,.478.547.988.988,0,0,0,.478.137,1.739,1.739,0,0,0,.478-.137,4.46,4.46,0,0,0,.478-.547A1.949,1.949,0,0,0,346.311,363.367Z" transform="translate(-324.3 -338.621)" fill="#fff"/>
      <path id="Path_17" data-name="Path 17" d="M307.6,363.142a.719.719,0,0,0-.889,0,4.467,4.467,0,0,0-.478.547,1.266,1.266,0,0,0,.478.547.988.988,0,0,0,.478.137,1.74,1.74,0,0,0,.478-.137,4.464,4.464,0,0,0,.478-.547A2.063,2.063,0,0,0,307.6,363.142Z" transform="translate(-288.394 -338.397)" fill="#fff"/>
      <path id="Path_18" data-name="Path 18" d="M78.775,43.415h1.367a3.035,3.035,0,0,0,1.5-.684,2.662,2.662,0,0,0,.889-1.367,3.431,3.431,0,0,0,.137-.82v-.684c-.068-3.418-.068-6.289-.273-15.654v-1.23a9.628,9.628,0,0,0-.068-1.367,2.412,2.412,0,0,0-1.914-1.846,9.128,9.128,0,0,0-1.367,0l-1.3.068H75.836a10.81,10.81,0,0,0-1.5-1.982,8.419,8.419,0,0,0-11.757,0,6.529,6.529,0,0,0-1.641,1.982l-1.914-.068-1.3-.068a9.115,9.115,0,0,0-1.367,0,2.619,2.619,0,0,0-1.914,1.846,11.1,11.1,0,0,0-.068,1.436l-.068,1.3C54.1,33.5,54.1,36.306,54.1,39.861v.684s.068.547.137.82a2.663,2.663,0,0,0,.889,1.367,3.035,3.035,0,0,0,1.5.684h8.2a2.511,2.511,0,0,1-.068,1.23,4.185,4.185,0,0,1-.478,1.162H63.258a10.117,10.117,0,0,0-1.367.068,3.683,3.683,0,0,0-1.436.547,3.774,3.774,0,0,0-1.709,2.392.511.511,0,0,0,.478.615c3.076-.137,6.084-.273,9.16-.547-2.8-.273-5.605-.41-8.408-.478a2.584,2.584,0,0,1,2.051-1.367,7.345,7.345,0,0,1,1.23,0l5.2.068,5.2-.068h1.23a2.3,2.3,0,0,1,.957.342,3.662,3.662,0,0,1,1.025,1.025c-2.461.068-5.879.273-8.408.478,2.666.273,6.767.478,9.16.478h.137a.6.6,0,0,0,.41-.615,3.774,3.774,0,0,0-1.709-2.392,3.316,3.316,0,0,0-1.436-.547,10.118,10.118,0,0,0-1.367-.068H72.623a3.482,3.482,0,0,1-.478-1.162,3.734,3.734,0,0,1-.068-1.23ZM77.681,19.969l1.3.068a7.03,7.03,0,0,1,1.23.068,2.16,2.16,0,0,1,1.5,1.641,7.383,7.383,0,0,1,0,1.23l-.068,1.3c-.205,8.613-.205,12.646-.273,14.355-2.119-.273-4.17-.41-6.289-.478a9.162,9.162,0,0,1-1.367-.068c0-.068.068-.137.068-.273a1.713,1.713,0,0,0-.342-1.3,1.132,1.132,0,0,0,.342-.82,1.567,1.567,0,0,0-1.025-1.641,1.163,1.163,0,0,0-.478-.068h-.615a14.416,14.416,0,0,1,1.094-2.324,12,12,0,0,1,1.846-2.324,8.086,8.086,0,0,0,1.572-2.666,9.751,9.751,0,0,0,.478-3.144,8.517,8.517,0,0,0-1.025-3.691Zm-5.2,16H64.42a.514.514,0,0,1-.342-.478.647.647,0,0,1,.478-.547c.41-.068.889-.068,1.367-.137.957-.068,1.914-.205,2.8-.342-.615-.068-1.23-.205-1.846-.273.273-1.5.41-3.008.547-4.443l.615.615a.661.661,0,0,0,.957,0l.615-.615a32.541,32.541,0,0,0,.547,4.512c-.478.068-1.534.143-1.945.211.957.137,2.491.267,3.38.336l.684.068h.342a.688.688,0,0,0,.205.068.6.6,0,0,1,.273.615A4.636,4.636,0,0,1,72.486,35.964Zm.41,1.709a.376.376,0,0,1-.205.342c-1.436-.068-2.871-.068-4.306-.068s-2.871,0-4.375.068a.532.532,0,0,1-.137-.547c.061-.369.537-.36.752-.342h7.724c.41.137.547.342.547.547ZM60.934,23.66a7.672,7.672,0,0,1,2.392-4.853,7.365,7.365,0,0,1,9.98-.068A7.353,7.353,0,0,1,75.7,23.591a7.527,7.527,0,0,1-1.5,5.332,12.636,12.636,0,0,0-2.939,5.058c-.478.068-.311.115-.79.184.069-2.066-.031-4.08.038-6.062a1.267,1.267,0,0,0-.137-.478.639.639,0,0,0-.889-.068l-.068.068c-.41.342-.82.752-1.23,1.162-.41-.41-.82-.752-1.23-1.162l-.068-.068a.577.577,0,0,0-.478-.137.631.631,0,0,0-.615.684c.068,1.025.068,2.051.205,3.076a20.741,20.741,0,0,0,.41,2.871c-.273,0-.615-.068-.889-.068a16.934,16.934,0,0,0-3.281-5.058,9.294,9.294,0,0,1-1.3-5.264Zm-5.947.615-.068-1.3a7.383,7.383,0,0,1,0-1.23,2.371,2.371,0,0,1,1.572-1.641,3.63,3.63,0,0,1,1.23-.068l1.3-.068,1.914-.068a7.891,7.891,0,0,0-1.025,3.691,8.1,8.1,0,0,0,2.051,5.81A9.869,9.869,0,0,1,63.8,31.726,24.211,24.211,0,0,1,64.9,34.05a1.892,1.892,0,0,1-.615-.068,1.523,1.523,0,0,0-1.436,1.3,1.713,1.713,0,0,0,.342,1.3,1.132,1.132,0,0,0-.342.82,2.8,2.8,0,0,0,.068.752,9.162,9.162,0,0,0-1.367.068c-2.119.068-4.17.205-6.289.478-.068-2.734-.068-5.4-.273-14.423ZM72.008,45.808H64.762a3.534,3.534,0,0,0,1.094-2.324h5.2A3,3,0,0,0,72.008,45.808Zm-3.623-3.691-10.39.068H56.832a2.014,2.014,0,0,1-.889-.342,1.939,1.939,0,0,1-.547-.752,1.163,1.163,0,0,1-.068-.478V38.835c2.119.205,4.17.342,6.289.478,2.256.137,4.58.137,6.836.137s4.58-.068,6.836-.137c2.119-.068,4.17-.205,6.289-.478v1.777c0,.137-.068.342-.068.478a1.939,1.939,0,0,1-.547.752,1.44,1.44,0,0,1-.889.342H78.912Z" transform="translate(-54.098 -15.457)" fill="#fff"/>
    </g>
  </g>
</svg>
